<?xml version="1.0" encoding="UTF-8" standalone="no"?>
<svg xmlns:rdf="http://www.w3.org/1999/02/22-rdf-syntax-ns#" xmlns="http://www.w3.org/2000/svg" xml:space="preserve" height="223.16" viewBox="0 0 296 223.16174" width="296" version="1.1" xmlns:cc="http://creativecommons.org/ns#" xmlns:dc="http://purl.org/dc/elements/1.1/"><g transform="matrix(1.25 0 0 -1.25 -233.97 605.02)"><g transform="matrix(.38746 0 0 .38746 187.18 241.78)"><g fill-opacity=".94118" fill="#fff" clip-path="url(#a)"><path d="m588.54 519.65-37.25-8.7959v-323.96h-157.28l-167.72 169.46v-82.41l35.54-10.424v-76.59h-237.55v76.771l41.601 10.332v236.68l-43.27 9.0981v82.751h214.32l160.38-167.36v75.342l-30.185 9.1468v82.866h221.4v-82.909zm-244.02 105.53v-102.19l-97.933 102.19h-246.59v-123.72l43.27-9.0981v-200.63l-41.601-10.327v-117.08h282.78v101.21l100.12-101.27h189.34v328.7l37.25 8.7984v123.42h-266.63" fill-opacity=".94118" fill="#fff"/></g><path d="m381.22 344.06 11.09-35.01-29.934 22.664-29.914-21.487 11.582 34.228-28.175 22.662h35.022l11.485 32.756 11.449-32.756h36.415l-29.02-23.059zm70.111-29.087 11.467-32.843h36.474l-29.061-22.928 11.09-35.094-29.97 22.726-29.904-21.517 11.666 34.203-28.213 22.611h35.004l11.446 32.843zm-178 101.73-29.952-21.517 11.592 34.198-28.119 22.639h34.984l11.495 32.81 11.362-32.81h36.51l-29.041-22.933 11.016-35.084-29.847 22.698zm-70.219 97.321 11.1-35.079-29.942 22.664-29.914-21.551 11.61 34.308-28.167 22.6h34.997l11.474 32.746 11.408-32.746h36.533l-29.099-22.944zm164.03 5.677 30.185-9.1468v-75.342l-160.38 167.36h-214.32v-82.751l43.27-9.0981v-236.68l-41.601-10.332v-76.771h237.55v76.59l-35.54 10.424v82.41l167.72-169.46h157.28v323.96l37.25 8.7959v82.909h-221.4v-82.866" fill="#003b66"/><g fill="#fff"><path d="m195.67 536.96-11.408 32.746-11.474-32.746h-34.997l28.167-22.6-11.61-34.308 29.914 21.551 29.942-22.664-11.1 35.079 29.099 22.944h-36.533"/><path d="m321.2 452.02h-36.51l-11.362 32.81-11.495-32.81h-34.984l28.119-22.639-11.592-34.198 29.952 21.517 29.847-22.698-11.016 35.084 29.041 22.933"/><path d="m362.38 399.87-11.485-32.756h-35.022l28.175-22.662-11.582-34.228 29.914 21.487 29.934-22.664-11.09 35.01 29.02 23.059h-36.415l-11.449 32.756"/><path d="m433.09 259.52-11.666-34.203 29.904 21.517 29.97-22.726-11.09 35.094 29.061 22.928h-36.474l-11.467 32.843-11.446-32.843h-35.004l28.213-22.611"/></g></g></g></svg>
